<svg width="51" height="51" viewBox="0 0 51 51" fill="none" xmlns="http://www.w3.org/2000/svg">
<mask id="mask0_5_85" style="mask-type:alpha" maskUnits="userSpaceOnUse" x="0" y="0" width="51" height="51">
<rect width="51" height="51" fill="#D9D9D9"/>
</mask>
<g mask="url(#mask0_5_85)">
<path d="M46.75 46.75L38.25 38.25H17C15.8313 38.25 14.8307 37.8339 13.9984 37.0016C13.1661 36.1693 12.75 35.1688 12.75 34V31.875H36.125C37.2938 31.875 38.2943 31.4589 39.1266 30.6266C39.9589 29.7943 40.375 28.7938 40.375 27.625V12.75H42.5C43.6688 12.75 44.6693 13.1661 45.5016 13.9984C46.3339 14.8307 46.75 15.8313 46.75 17V46.75ZM8.5 25.8719L10.9969 23.375H31.875V8.5H8.5V25.8719ZM4.25 36.125V8.5C4.25 7.33125 4.66615 6.33073 5.49844 5.49844C6.33073 4.66615 7.33125 4.25 8.5 4.25H31.875C33.0438 4.25 34.0443 4.66615 34.8766 5.49844C35.7089 6.33073 36.125 7.33125 36.125 8.5V23.375C36.125 24.5438 35.7089 25.5443 34.8766 26.3766C34.0443 27.2089 33.0438 27.625 31.875 27.625H12.75L4.25 36.125Z" fill="#090100"/>
</g>
</svg>
