<svg width="25" height="25" viewBox="0 0 25 25" fill="none" xmlns="http://www.w3.org/2000/svg">
<mask id="mask0_2_54" style="mask-type:alpha" maskUnits="userSpaceOnUse" x="0" y="0" width="25" height="25">
<rect width="25" height="25" fill="#D9D9D9"/>
</mask>
<g mask="url(#mask0_2_54)">
<path d="M13.9714 11.8881C14.3794 11.4801 14.5834 10.9896 14.5834 10.4167C14.5834 9.84379 14.3794 9.35334 13.9714 8.94535C13.5634 8.53737 13.0729 8.33337 12.5 8.33337C11.9271 8.33337 11.4367 8.53737 11.0287 8.94535C10.6207 9.35334 10.4167 9.84379 10.4167 10.4167C10.4167 10.9896 10.6207 11.4801 11.0287 11.8881C11.4367 12.296 11.9271 12.5 12.5 12.5C13.0729 12.5 13.5634 12.296 13.9714 11.8881ZM12.5 20.1563C14.6181 18.2118 16.1893 16.4454 17.2136 14.8568C18.2379 13.2683 18.75 11.8577 18.75 10.625C18.75 8.73268 18.1467 7.1832 16.9401 5.9766C15.7335 4.77001 14.2535 4.16671 12.5 4.16671C10.7465 4.16671 9.26651 4.77001 8.05992 5.9766C6.85332 7.1832 6.25002 8.73268 6.25002 10.625C6.25002 11.8577 6.76217 13.2683 7.78648 14.8568C8.81078 16.4454 10.382 18.2118 12.5 20.1563ZM12.5 22.9167C9.70488 20.5382 7.61721 18.329 6.237 16.2891C4.85679 14.2492 4.16669 12.3612 4.16669 10.625C4.16669 8.02087 5.00436 5.94622 6.67971 4.40108C8.35506 2.85594 10.2952 2.08337 12.5 2.08337C14.7049 2.08337 16.645 2.85594 18.3203 4.40108C19.9957 5.94622 20.8334 8.02087 20.8334 10.625C20.8334 12.3612 20.1433 14.2492 18.763 16.2891C17.3828 18.329 15.2952 20.5382 12.5 22.9167Z" fill="black" fill-opacity="0.5"/>
</g>
</svg>
