<svg width="25" height="25" viewBox="0 0 25 25" fill="none" xmlns="http://www.w3.org/2000/svg">
<mask id="mask0_2_39" style="mask-type:alpha" maskUnits="userSpaceOnUse" x="0" y="0" width="25" height="25">
<rect width="25" height="25" fill="#D9D9D9"/>
</mask>
<g mask="url(#mask0_2_39)">
<path d="M7.99479 22.0443C6.8316 21.4627 6.25 20.7118 6.25 19.7917C6.25 19.375 6.37587 18.9887 6.6276 18.6328C6.87934 18.2769 7.2309 17.9687 7.68229 17.7083L9.32292 19.2448C9.16667 19.3142 8.99739 19.3924 8.8151 19.4792C8.63281 19.566 8.48958 19.6701 8.38542 19.7917C8.61111 20.0694 9.13194 20.3125 9.94792 20.5208C10.7639 20.7292 11.6146 20.8333 12.5 20.8333C13.3854 20.8333 14.2405 20.7292 15.0651 20.5208C15.8898 20.3125 16.4149 20.0694 16.6406 19.7917C16.5191 19.6528 16.3628 19.5399 16.1719 19.4531C15.9809 19.3663 15.7986 19.2882 15.625 19.2187L17.2396 17.6563C17.7257 17.934 18.099 18.2509 18.3594 18.6068C18.6198 18.9627 18.75 19.3576 18.75 19.7917C18.75 20.7118 18.1684 21.4627 17.0052 22.0443C15.842 22.6259 14.3403 22.9167 12.5 22.9167C10.6597 22.9167 9.15798 22.6259 7.99479 22.0443ZM12.526 17.1875C14.2448 15.9201 15.5382 14.6484 16.4062 13.3724C17.2743 12.0964 17.7083 10.816 17.7083 9.53125C17.7083 7.76042 17.1441 6.42361 16.0156 5.52083C14.8872 4.61806 13.7153 4.16667 12.5 4.16667C11.2847 4.16667 10.1128 4.61806 8.98437 5.52083C7.8559 6.42361 7.29167 7.76042 7.29167 9.53125C7.29167 10.6944 7.71701 11.9054 8.56771 13.1641C9.4184 14.4227 10.7378 15.7639 12.526 17.1875ZM12.5 19.7917C10.0521 17.9861 8.22483 16.2326 7.01823 14.5312C5.81163 12.8299 5.20833 11.1632 5.20833 9.53125C5.20833 8.29861 5.42969 7.21788 5.87239 6.28906C6.3151 5.36024 6.88368 4.58333 7.57812 3.95833C8.27257 3.33333 9.05382 2.86458 9.92187 2.55208C10.7899 2.23958 11.6493 2.08333 12.5 2.08333C13.3507 2.08333 14.2101 2.23958 15.0781 2.55208C15.9462 2.86458 16.7274 3.33333 17.4219 3.95833C18.1163 4.58333 18.6849 5.36024 19.1276 6.28906C19.5703 7.21788 19.7917 8.29861 19.7917 9.53125C19.7917 11.1632 19.1884 12.8299 17.9818 14.5312C16.7752 16.2326 14.9479 17.9861 12.5 19.7917ZM12.5 11.4583C13.0729 11.4583 13.5634 11.2543 13.9714 10.8464C14.3793 10.4384 14.5833 9.94792 14.5833 9.375C14.5833 8.80208 14.3793 8.31163 13.9714 7.90365C13.5634 7.49566 13.0729 7.29167 12.5 7.29167C11.9271 7.29167 11.4366 7.49566 11.0286 7.90365C10.6207 8.31163 10.4167 8.80208 10.4167 9.375C10.4167 9.94792 10.6207 10.4384 11.0286 10.8464C11.4366 11.2543 11.9271 11.4583 12.5 11.4583Z" fill="#090100"/>
</g>
</svg>
